<svg width="300" height="300" viewBox="0 0 300 300" fill="none" xmlns="http://www.w3.org/2000/svg"><mask id="mask0_640_191" style="mask-type:alpha" maskUnits="userSpaceOnUse" x="0" y="0" width="300" height="300"><path fill-rule="evenodd" clip-rule="evenodd" d="M212.736 298.718C217.461 300.568 222.848 300.45 227.617 298.143L289.382 268.269C295.873 265.129 300 258.527 300 251.283V48.7174C300 41.4741 295.873 34.8716 289.383 31.7324L227.617 1.85722C221.359 -1.17004 214.034 -0.428552 208.54 3.58571C207.756 4.15915 207.008 4.79941 206.307 5.50499L88.0653 113.938L36.5616 74.64C31.767 70.9818 25.0609 71.2816 20.608 75.3532L4.08909 90.4574C-1.35765 95.4376 -1.3639 104.051 4.07559 109.04L48.7413 150L4.07559 190.96C-1.3639 195.949 -1.35765 204.562 4.08909 209.543L20.608 224.647C25.0609 228.718 31.767 229.018 36.5616 225.36L88.0653 186.062L206.307 294.495C208.177 296.376 210.374 297.793 212.736 298.718ZM225.046 81.5435L135.327 150L225.046 218.456V81.5435Z" fill="#25B1C8"/></mask><g mask="url(#mask0_640_191)"><path d="M289.171 31.7763L227.358 1.86012C220.203 -1.60267 211.652 -0.141991 206.037 5.50226L3.68258 190.958C-1.76024 195.946 -1.75399 204.56 3.69607 209.54L20.225 224.644C24.6806 228.716 31.3909 229.015 36.1882 225.357L279.87 39.5374C288.045 33.3034 299.787 39.1644 299.787 49.4791V48.7578C299.787 41.5174 295.661 34.9173 289.171 31.7763Z" fill="white"/><g filter="url(#filter0_d_640_191)"><path d="M289.2 268.264L227.387 298.181C220.232 301.644 211.681 300.183 206.066 294.538L3.71187 109.083C-1.73095 104.095 -1.72469 95.481 3.72537 90.5009L20.2543 75.3966C24.7099 71.325 31.4202 71.0253 36.2175 74.6834L279.899 260.503C288.074 266.737 299.816 260.876 299.816 250.562V251.283C299.816 258.523 295.69 265.123 289.2 268.264Z" fill="white"/></g><g filter="url(#filter1_d_640_191)"><path d="M227.412 298.143C220.255 301.604 211.705 300.14 206.089 294.495C213.008 301.45 224.839 296.524 224.839 286.688V13.3118C224.839 3.47584 213.008 -1.45005 206.089 5.505C211.705 -0.139768 220.255 -1.60251 227.412 1.85722L289.215 31.7324C295.709 34.8716 299.839 41.4742 299.839 48.7175V251.284C299.839 258.527 295.709 265.129 289.215 268.269L227.412 298.143Z" fill="white"/></g><g style="mix-blend-mode:overlay" opacity="0.25"><path fill-rule="evenodd" clip-rule="evenodd" d="M212.369 298.718C217.094 300.568 222.482 300.449 227.251 298.143L289.016 268.269C295.506 265.13 299.634 258.527 299.634 251.283V48.7176C299.634 41.474 295.507 34.8714 289.016 31.7323L227.251 1.85722C220.993 -1.17004 213.668 -0.42855 208.174 3.58569C207.39 4.15915 206.642 4.79942 205.941 5.50499L87.699 113.938L36.1953 74.6402C31.401 70.9817 24.6947 71.2817 20.2418 75.353L3.72288 90.4573C-1.72387 95.4378 -1.73011 104.051 3.70938 109.039L48.375 150L3.70938 190.961C-1.73011 195.949 -1.72387 204.562 3.72288 209.542L20.2418 224.647C24.6947 228.718 31.401 229.018 36.1953 225.36L87.699 186.062L205.941 294.495C207.811 296.376 210.008 297.793 212.369 298.718ZM224.679 81.5437L134.961 150L224.679 218.456V81.5437Z" fill="white"/></g></g><defs><filter id="filter0_d_640_191" x="-8.8956" y="63.5995" width="317.241" height="244.971" filterUnits="userSpaceOnUse" color-interpolation-filters="sRGB"><feFlood flood-opacity="0" result="BackgroundImageFix"/><feColorMatrix in="SourceAlpha" type="matrix" values="0 0 0 0 0 0 0 0 0 0 0 0 0 0 0 0 0 0 127 0" result="hardAlpha"/><feOffset/><feGaussianBlur stdDeviation="4.2647"/><feColorMatrix type="matrix" values="0 0 0 0 0 0 0 0 0 0 0 0 0 0 0 0 0 0 0.25 0"/><feBlend mode="overlay" in2="BackgroundImageFix" result="effect1_dropShadow_640_191"/><feBlend mode="normal" in="SourceGraphic" in2="effect1_dropShadow_640_191" result="shape"/></filter><filter id="filter1_d_640_191" x="197.559" y="-8.52939" width="110.809" height="317.059" filterUnits="userSpaceOnUse" color-interpolation-filters="sRGB"><feFlood flood-opacity="0" result="BackgroundImageFix"/><feColorMatrix in="SourceAlpha" type="matrix" values="0 0 0 0 0 0 0 0 0 0 0 0 0 0 0 0 0 0 127 0" result="hardAlpha"/><feOffset/><feGaussianBlur stdDeviation="4.2647"/><feColorMatrix type="matrix" values="0 0 0 0 0 0 0 0 0 0 0 0 0 0 0 0 0 0 0.25 0"/><feBlend mode="overlay" in2="BackgroundImageFix" result="effect1_dropShadow_640_191"/><feBlend mode="normal" in="SourceGraphic" in2="effect1_dropShadow_640_191" result="shape"/></filter></defs></svg>
